<svg width="214" height="214" viewBox="0 0 214 214" fill="none" xmlns="http://www.w3.org/2000/svg">
<circle cx="107" cy="107" r="107" fill="#1E1E1E"/>
<circle cx="105.174" cy="105.46" r="58.6118" transform="rotate(29.8278 105.174 105.46)" stroke="white" stroke-width="8"/>
<circle cx="105.822" cy="105.658" r="37.0447" transform="rotate(29.8278 105.822 105.658)" stroke="white" stroke-width="6"/>
<circle cx="105.61" cy="104.877" r="8.36928" transform="rotate(29.8278 105.61 104.877)" stroke="white" stroke-width="5"/>
<line x1="106.474" y1="114.245" x2="139.268" y2="105.352" stroke="white" stroke-width="2.5"/>
<line x1="69.5899" y1="104.967" x2="102.385" y2="96.0741" stroke="white" stroke-width="2.5"/>
<line x1="105.7" y1="140.897" x2="96.807" y2="108.102" stroke="white" stroke-width="2.5"/>
<line x1="114.978" y1="104.013" x2="106.085" y2="71.2186" stroke="white" stroke-width="2.5"/>
<line x1="97.5495" y1="99.5962" x2="80.6485" y2="129.074" stroke="white" stroke-width="2.5"/>
<line x1="130.358" y1="81.4789" x2="113.457" y2="110.957" stroke="white" stroke-width="2.5"/>
<line x1="101.322" y1="113.507" x2="130.799" y2="130.408" stroke="white" stroke-width="2.5"/>
<line x1="81.2192" y1="79.5603" x2="110.697" y2="96.4614" stroke="white" stroke-width="2.5"/>
<path fill-rule="evenodd" clip-rule="evenodd" d="M186.723 83.7191C188.613 90.6921 184.287 100.713 170.957 111.661C158.104 122.217 138.62 132.034 115.525 138.297C92.4298 144.56 70.6553 145.93 54.2308 143.314C37.196 140.6 28.3996 134.138 26.5087 127.165C24.6178 120.192 28.9442 110.17 42.2745 99.2225C43.5812 98.1493 44.9565 97.0838 46.3971 96.0288L46.3971 88.6969C27.6322 101.361 17.3071 116.157 20.7178 128.735C26.5056 150.079 69.6553 156.952 117.095 144.088C164.535 131.223 198.301 103.492 192.513 82.1488C189.016 69.2526 171.879 61.6391 148.397 60.4704L148.397 66.4782C152.129 66.6735 155.674 67.0398 159 67.5697C176.035 70.2833 184.832 76.7461 186.723 83.7191Z" fill="white"/>
</svg>
